<?xml version="1.0" encoding="utf-8"?>
<!-- Generator: Adobe Illustrator 25.4.1, SVG Export Plug-In . SVG Version: 6.00 Build 0)  -->
<svg version="1.1" id="Layer_1" xmlns="http://www.w3.org/2000/svg" xmlns:xlink="http://www.w3.org/1999/xlink" x="0px" y="0px"
	 viewBox="0 0 400 100" style="enable-background:new 0 0 400 100;" xml:space="preserve">
<style type="text/css">
	.st0{fill:#00CECB;}
	.st1{enable-background:new    ;}
</style>
<path class="st0" d="M76.7,60.6c1.1,1.3,0.8,3.4-0.4,4.4c-4.8,4-9.1,5.3-13.1,5.3c-5.3,0-9.7-2.5-13.7-4.6c-6.5-3.6-11.8-6.3-19.6,0
	c-1.3,1.1-3.4,0.8-4.4-0.4c-1.3-1.1-1-3,0.2-4.2c11.2-9.3,19.8-4.6,26.7-0.8c6.5,3.6,11.8,6.3,19.6,0C73.6,59.1,75.5,59.3,76.7,60.6
	L76.7,60.6z M72.1,45.4c-7.8,6.5-13.1,3.6-19.6,0c-7-3.8-15.6-8.4-26.8,0.8c-1.3,1-1.5,3.2-0.4,4.4s3.2,1.5,4.4,0.4
	c7.8-6.5,13.1-3.6,19.6,0c4,2.1,8.4,4.6,13.7,4.6c4,0,8.2-1.5,13.1-5.3c1.3-1,1.5-3.2,0.4-4.4C75.5,44.6,73.6,44.4,72.1,45.4z
	 M30,36.6c7.8-6.5,13.1-3.6,19.6,0c4,2.1,8.4,4.6,13.7,4.6c4,0,8.2-1.5,13.1-5.3c1.3-1,1.5-3.2,0.4-4.4s-3.2-1.5-4.4-0.4
	c-7.8,6.5-13.1,3.6-19.6,0c-7.2-4-15.8-8.6-27,0.4c-1.3,1.1-1.5,3.2-0.4,4.4C26.4,37.2,28.5,37.6,30,36.6
	C29.8,36.6,29.8,36.6,30,36.6z"/>
<g class="st1">
	<path d="M126.9,36.5v7.1h-7.5v19.3c0,1.3,0.3,2.3,0.8,2.8c0.5,0.5,1.5,0.8,2.9,0.8h3.8v7.1h-5.3c-3.8,0-6.6-0.8-8.4-2.3
		c-1.8-1.5-2.7-3.9-2.7-7.1V43.6H104v-7.1h6.5V26.4h8.9v10.1H126.9z"/>
	<path d="M136.9,31c-1.5,0-2.8-0.5-3.8-1.5c-1-1-1.5-2.2-1.5-3.6c0-1.4,0.5-2.6,1.5-3.6c1-1,2.3-1.4,3.8-1.4c1.5,0,2.7,0.5,3.8,1.4
		c1,1,1.5,2.2,1.5,3.6c0,1.4-0.5,2.6-1.5,3.6C139.7,30.5,138.4,31,136.9,31z M132.5,73.6V36.5h8.8v37.1H132.5z"/>
	<path d="M149.2,73.6V36.5h8.6v6.4c1.1-2.4,2.7-4.2,4.7-5.4c2-1.2,4.2-1.8,6.5-1.8c2.5,0,4.7,0.6,6.6,1.9c1.9,1.3,3.3,3,4,5.1
		c1-2.1,2.5-3.8,4.6-5.1c2.1-1.3,4.5-1.9,7.2-1.9c3.5,0,6.5,1.1,8.8,3.4c2.4,2.3,3.6,5.6,3.6,9.9v24.5H195V50.4c0-2.5-0.7-4.3-2-5.4
		s-3-1.7-4.9-1.7c-2.2,0-4,0.7-5.3,2.1s-1.9,3.2-1.9,5.4v22.7h-8.6V49.9c0-2-0.6-3.6-1.9-4.8c-1.3-1.2-2.9-1.8-4.8-1.8
		c-2,0-3.7,0.7-5.2,2.1c-1.5,1.4-2.2,3.4-2.2,6.1v22.1H149.2z"/>
	<path d="M228,74.4c-3.7,0-6.9-0.8-9.6-2.5c-2.7-1.7-4.8-3.9-6.3-6.9c-1.5-2.9-2.2-6.2-2.2-10c0-3.8,0.8-7.1,2.3-10
		c1.5-2.9,3.6-5.2,6.3-6.9c2.7-1.7,5.7-2.5,9.2-2.5c3.6,0,6.7,0.8,9.3,2.5c2.7,1.6,4.7,3.9,6.2,6.8c1.5,2.9,2.2,6.2,2.2,10v2.4
		h-26.8c0.1,3,1,5.5,2.7,7.3c1.7,1.8,4,2.8,7,2.8c2.2,0,4.1-0.5,5.5-1.5c1.5-1,2.4-2.3,2.9-3.8h8.3c-0.5,2.4-1.5,4.5-3.1,6.4
		c-1.6,1.8-3.6,3.3-5.9,4.3S230.9,74.4,228,74.4z M218.7,51.2h18.3c-0.3-2.6-1.2-4.7-2.9-6.3c-1.6-1.5-3.7-2.3-6.3-2.3
		c-2.6,0-4.7,0.8-6.3,2.3C219.9,46.5,219,48.6,218.7,51.2z"/>
	<path d="M271,36.5v7.1h-7.5v19.3c0,1.3,0.3,2.3,0.8,2.8c0.5,0.5,1.5,0.8,2.9,0.8h3.8v7.1h-5.3c-3.8,0-6.6-0.8-8.4-2.3
		c-1.8-1.5-2.7-3.9-2.7-7.1V43.6h-6.5v-7.1h6.5V26.4h8.9v10.1H271z"/>
	<path d="M281,31c-1.5,0-2.8-0.5-3.8-1.5c-1-1-1.5-2.2-1.5-3.6c0-1.4,0.5-2.6,1.5-3.6c1-1,2.3-1.4,3.8-1.4c1.5,0,2.7,0.5,3.8,1.4
		c1,1,1.5,2.2,1.5,3.6c0,1.4-0.5,2.6-1.5,3.6C283.7,30.5,282.5,31,281,31z M276.6,73.6V36.5h8.8v37.1H276.6z"/>
	<path d="M307.6,74.3c-3.2,0-6-0.8-8.5-2.4c-2.4-1.6-4.3-3.9-5.6-6.8c-1.3-2.9-2-6.3-2-10.1c0-3.8,0.7-7.1,2-10
		c1.3-2.9,3.2-5.1,5.6-6.8c2.4-1.6,5.2-2.4,8.4-2.4c2.4,0,4.6,0.5,6.5,1.5c1.9,1,3.5,2.5,4.7,4.5h0.1V21.3h8.8v52.3h-8.7v-5.7h-0.1
		c-1.2,2.2-2.7,3.8-4.7,4.8C312.2,73.8,310,74.3,307.6,74.3z M309.7,66.9c2.9,0,5.2-1.1,7-3.2c1.7-2.2,2.6-5,2.6-8.7
		s-0.9-6.5-2.6-8.7c-1.7-2.2-4.1-3.2-7-3.2c-2.7,0-4.9,1-6.6,3.1c-1.7,2.1-2.5,5-2.5,8.8c0,3.8,0.8,6.8,2.5,8.8
		C304.7,65.9,306.9,66.9,309.7,66.9z"/>
	<path d="M351.8,74.4c-3.7,0-6.9-0.8-9.6-2.5c-2.7-1.7-4.8-3.9-6.3-6.9c-1.5-2.9-2.2-6.2-2.2-10c0-3.8,0.8-7.1,2.3-10
		c1.5-2.9,3.6-5.2,6.3-6.9c2.7-1.7,5.7-2.5,9.2-2.5c3.6,0,6.7,0.8,9.3,2.5c2.7,1.6,4.7,3.9,6.2,6.8c1.5,2.9,2.2,6.2,2.2,10v2.4
		h-26.8c0.1,3,1,5.5,2.7,7.3c1.7,1.8,4,2.8,7,2.8c2.2,0,4.1-0.5,5.5-1.5c1.5-1,2.4-2.3,2.9-3.8h8.3c-0.5,2.4-1.5,4.5-3.1,6.4
		c-1.6,1.8-3.6,3.3-6,4.3S354.7,74.4,351.8,74.4z M342.5,51.2h18.3c-0.3-2.6-1.2-4.7-2.9-6.3c-1.6-1.5-3.7-2.3-6.3-2.3
		c-2.6,0-4.7,0.8-6.3,2.3C343.7,46.5,342.8,48.6,342.5,51.2z"/>
</g>
</svg>
