<?xml version="1.0" encoding="utf-8"?>
<!-- Generator: Adobe Illustrator 25.4.1, SVG Export Plug-In . SVG Version: 6.00 Build 0)  -->
<svg version="1.1" id="Layer_1" xmlns="http://www.w3.org/2000/svg" xmlns:xlink="http://www.w3.org/1999/xlink" x="0px" y="0px"
	 viewBox="0 0 400 100" style="enable-background:new 0 0 400 100;" xml:space="preserve">
<style type="text/css">
	.st0{fill:#00CECB;}
	.st1{font-family:'InterDisplay-SemiBold';}
	.st2{font-size:71.8882px;}
</style>
<g>
	<path class="st0" d="M76.73,60.59c1.05,1.26,0.84,3.37-0.42,4.42c-4.84,4-9.06,5.27-13.06,5.27c-5.27,0-9.69-2.53-13.69-4.63
		c-6.53-3.58-11.79-6.32-19.59,0c-1.26,1.05-3.37,0.84-4.42-0.42c-1.26-1.05-1.05-2.95,0.21-4.21c11.16-9.27,19.8-4.63,26.75-0.84
		c6.53,3.58,11.79,6.32,19.59,0C73.57,59.11,75.47,59.32,76.73,60.59L76.73,60.59z M72.1,45.42c-7.79,6.53-13.06,3.58-19.59,0
		c-6.95-3.79-15.59-8.42-26.75,0.84c-1.26,1.05-1.47,3.16-0.42,4.42s3.16,1.47,4.42,0.42c7.79-6.53,13.06-3.58,19.59,0
		c4,2.11,8.42,4.63,13.69,4.63c4,0,8.21-1.47,13.06-5.27c1.26-1.05,1.47-3.16,0.42-4.42C75.47,44.58,73.57,44.37,72.1,45.42z
		 M29.97,36.58c7.79-6.53,13.06-3.58,19.59,0c4,2.11,8.42,4.63,13.69,4.63c4,0,8.21-1.47,13.06-5.27c1.26-1.05,1.47-3.16,0.42-4.42
		c-1.05-1.26-3.16-1.47-4.42-0.42c-7.79,6.53-13.06,3.58-19.59,0c-7.16-4-15.8-8.64-26.96,0.42c-1.26,1.05-1.47,3.16-0.42,4.42
		C26.39,37.21,28.5,37.63,29.97,36.58C29.76,36.58,29.76,36.58,29.97,36.58z"/>
	<text transform="matrix(1 0 0 1 103.4488 73.5536)" class="st1 st2">timetide</text>
</g>
</svg>
