<?xml version="1.0" encoding="utf-8"?>
<!-- Generator: Adobe Illustrator 25.4.1, SVG Export Plug-In . SVG Version: 6.00 Build 0)  -->
<svg version="1.1" id="Layer_1" xmlns="http://www.w3.org/2000/svg" xmlns:xlink="http://www.w3.org/1999/xlink" x="0px" y="0px"
	 viewBox="0 0 32 32" style="enable-background:new 0 0 32 32;" xml:space="preserve">
<style type="text/css">
	.st0{fill:#00CECB;}
</style>
<path class="st0" d="M28.2,21.8c0.5,0.6,0.4,1.6-0.2,2.1c-2.3,1.9-4.3,2.5-6.2,2.5c-2.5,0-4.6-1.2-6.5-2.2c-3.1-1.7-5.6-3-9.3,0
	c-0.6,0.5-1.6,0.4-2.1-0.2c-0.6-0.5-0.5-1.4,0.1-2c5.3-4.4,9.4-2.2,12.7-0.4c3.1,1.7,5.6,3,9.3,0C26.7,21.1,27.6,21.2,28.2,21.8
	L28.2,21.8z M26,14.6c-3.7,3.1-6.2,1.7-9.3,0c-3.3-1.8-7.4-4-12.7,0.4c-0.6,0.5-0.7,1.5-0.2,2.1s1.5,0.7,2.1,0.2
	c3.7-3.1,6.2-1.7,9.3,0c1.9,1,4,2.2,6.5,2.2c1.9,0,3.9-0.7,6.2-2.5c0.6-0.5,0.7-1.5,0.2-2.1C27.6,14.2,26.7,14.1,26,14.6z M6,10.4
	c3.7-3.1,6.2-1.7,9.3,0c1.9,1,4,2.2,6.5,2.2c1.9,0,3.9-0.7,6.2-2.5c0.6-0.5,0.7-1.5,0.2-2.1s-1.5-0.7-2.1-0.2
	c-3.7,3.1-6.2,1.7-9.3,0C13.4,5.9,9.3,3.7,4,8c-0.6,0.5-0.7,1.5-0.2,2.1S5.3,10.9,6,10.4C5.9,10.4,5.9,10.4,6,10.4z"/>
</svg>
