<svg id="Layer_1" data-name="Layer 1" xmlns="http://www.w3.org/2000/svg" viewBox="0 0 400 100"><defs><style>.cls-1{fill:#00bcff;}.cls-2{font-size:71.89px;fill:#fff;font-family:InterDisplay-SemiBold, Inter Display;font-weight:600;letter-spacing:0.01em;}</style></defs><path class="cls-1" d="M76.73,60.59A3.27,3.27,0,0,1,76.31,65c-4.85,4-9.06,5.26-13.06,5.26-5.27,0-9.69-2.52-13.69-4.63-6.53-3.58-11.8-6.32-19.59,0a3.27,3.27,0,0,1-4.42-.42c-1.26-1-1.05-2.95.21-4.21,11.16-9.27,19.8-4.64,26.75-.85,6.53,3.59,11.79,6.32,19.59,0a3.53,3.53,0,0,1,4.63.43ZM72.1,45.42C64.3,52,59,49,52.51,45.42c-6.95-3.79-15.59-8.42-26.75.84a3.14,3.14,0,0,0,4,4.85c7.79-6.53,13.06-3.58,19.59,0,4,2.1,8.42,4.63,13.69,4.63,4,0,8.21-1.47,13.06-5.26a3.28,3.28,0,0,0,.42-4.43A3.08,3.08,0,0,0,72.1,45.42ZM30,36.58c7.79-6.53,13.06-3.59,19.59,0,4,2.1,8.42,4.63,13.69,4.63,4,0,8.21-1.48,13.06-5.27a3.14,3.14,0,1,0-4-4.84c-7.8,6.53-13.06,3.58-19.59,0-7.16-4-15.8-8.64-27,.42a3.27,3.27,0,0,0-.42,4.42,3.53,3.53,0,0,0,4.63.64Z"/><text class="cls-2" transform="translate(103.45 73.55)">timetide</text></svg>